<svg xmlns="http://www.w3.org/2000/svg" width="1600" height="900" viewBox="0 0 1600 900" role="img" aria-label="Apartament 3 camere în Zorilor, Cluj-Napoca">
  <defs>
    <linearGradient id="bg" x1="0" x2="1" y1="0" y2="1">
      <stop offset="0" stop-color="#0ea5e9" stop-opacity="0.28"/>
      <stop offset="1" stop-color="#6366f1" stop-opacity="0.22"/>
    </linearGradient>
    <linearGradient id="card" x1="0" x2="1" y1="0" y2="0">
      <stop offset="0" stop-color="#ffffff" stop-opacity="0.9"/>
      <stop offset="1" stop-color="#ffffff" stop-opacity="0.7"/>
    </linearGradient>
    <filter id="shadow" x="-20%" y="-20%" width="140%" height="140%">
      <feDropShadow dx="0" dy="10" stdDeviation="18" flood-color="#0f172a" flood-opacity="0.18"/>
    </filter>
  </defs>

  <rect width="1600" height="900" fill="#f8fafc"/>
  <rect width="1600" height="900" fill="url(#bg)"/>

  <!-- soft shapes -->
  <circle cx="1350" cy="160" r="220" fill="#22c55e" opacity="0.10"/>
  <circle cx="260" cy="740" r="260" fill="#0ea5e9" opacity="0.12"/>

  <!-- mock photo frame -->
  <g filter="url(#shadow)">
    <rect x="140" y="160" width="1320" height="580" rx="36" fill="url(#card)"/>
    <rect x="170" y="190" width="1260" height="520" rx="28" fill="#0b1220" opacity="0.04"/>
  </g>

  <!-- building -->
  <g transform="translate(380 240)" fill="none" stroke="#0f172a" stroke-width="10" stroke-linecap="round" stroke-linejoin="round" opacity="0.9">
    <rect x="0" y="40" width="360" height="360" rx="26" fill="#ffffff" opacity="0.75"/>
    <path d="M90 400V40c0-20 16-36 36-36h108c20 0 36 16 36 36v360" opacity="0.95"/>
    <path d="M0 170h360M0 280h360" opacity="0.6"/>
    <path d="M120 90h40M200 90h40M120 140h40M200 140h40M120 240h40M200 240h40M120 320h40M200 320h40" opacity="0.8"/>
    <path d="M36 400h288" opacity="0.6"/>
    <path d="M260 400v-74c0-14 12-26 26-26h24c14 0 26 12 26 26v74" opacity="0.75"/>
  </g>

  <!-- title -->
  <g transform="translate(820 300)" fill="#0f172a">
    <text x="0" y="0" font-family="ui-sans-serif, system-ui, -apple-system, Segoe UI, Roboto, Arial" font-size="42" font-weight="700">
      Apartament • Zorilor
    </text>
    <text x="0" y="52" font-family="ui-sans-serif, system-ui, -apple-system, Segoe UI, Roboto, Arial" font-size="24" opacity="0.72">
      3 camere &#8226; teras&#259; &#8226; parcare &#8226; aproape de UMF
    </text>
    <g transform="translate(0 92)" opacity="0.75">
      <rect x="0" y="0" width="160" height="44" rx="22" fill="#0ea5e9" opacity="0.18"/>
      <text x="20" y="30" font-family="ui-sans-serif, system-ui, -apple-system, Segoe UI, Roboto, Arial" font-size="18" font-weight="600" fill="#075985">
        Cluj-Napoca
      </text>
    </g>
  </g>
</svg>
