<svg xmlns="http://www.w3.org/2000/svg" width="1600" height="900" viewBox="0 0 1600 900" role="img" aria-label="Apartament 2 camere în Gheorgheni, Cluj-Napoca">
  <defs>
    <linearGradient id="bg" x1="0" x2="1" y1="0" y2="1">
      <stop offset="0" stop-color="#6366f1" stop-opacity="0.22"/>
      <stop offset="1" stop-color="#0ea5e9" stop-opacity="0.24"/>
    </linearGradient>
    <filter id="shadow" x="-20%" y="-20%" width="140%" height="140%">
      <feDropShadow dx="0" dy="12" stdDeviation="18" flood-color="#0f172a" flood-opacity="0.18"/>
    </filter>
  </defs>

  <rect width="1600" height="900" fill="#f8fafc"/>
  <rect width="1600" height="900" fill="url(#bg)"/>

  <!-- city lights -->
  <g opacity="0.13" fill="#0f172a">
    <rect x="0" y="710" width="1600" height="190"/>
    <rect x="80" y="620" width="90" height="280" rx="12"/>
    <rect x="200" y="650" width="120" height="250" rx="12"/>
    <rect x="360" y="600" width="110" height="300" rx="12"/>
    <rect x="510" y="670" width="140" height="230" rx="12"/>
    <rect x="690" y="630" width="120" height="270" rx="12"/>
    <rect x="840" y="610" width="120" height="290" rx="12"/>
    <rect x="990" y="660" width="130" height="240" rx="12"/>
    <rect x="1160" y="620" width="110" height="280" rx="12"/>
    <rect x="1300" y="650" width="160" height="250" rx="12"/>
  </g>

  <g filter="url(#shadow)">
    <rect x="170" y="160" width="1260" height="580" rx="36" fill="#ffffff" opacity="0.86"/>
  </g>

  <!-- apartment outline -->
  <g transform="translate(330 250)" fill="none" stroke="#0f172a" stroke-width="12" stroke-linecap="round" stroke-linejoin="round" opacity="0.92">
    <rect x="0" y="0" width="420" height="420" rx="28" fill="#ffffff" opacity="0.65"/>
    <path d="M0 150h420M0 290h420" opacity="0.55"/>
    <path d="M90 80h70M260 80h70M90 120h70M260 120h70" opacity="0.8"/>
    <path d="M90 220h70M260 220h70M90 260h70M260 260h70" opacity="0.8"/>
    <path d="M90 360h70M260 360h70" opacity="0.8"/>
    <path d="M185 420v-95c0-18 14-32 32-32h18c18 0 32 14 32 32v95" opacity="0.75"/>
  </g>

  <!-- title -->
  <g transform="translate(820 310)" fill="#0f172a">
    <text x="0" y="0" font-family="ui-sans-serif, system-ui, -apple-system, Segoe UI, Roboto, Arial" font-size="42" font-weight="700">
      Apartament • Gheorgheni
    </text>
    <text x="0" y="52" font-family="ui-sans-serif, system-ui, -apple-system, Segoe UI, Roboto, Arial" font-size="24" opacity="0.72">
      2 camere &#8226; l&#226;ng&#259; Iulius Mall &#8226; finisaje premium
    </text>
    <g transform="translate(0 92)" opacity="0.75">
      <rect x="0" y="0" width="190" height="44" rx="22" fill="#6366f1" opacity="0.18"/>
      <text x="20" y="30" font-family="ui-sans-serif, system-ui, -apple-system, Segoe UI, Roboto, Arial" font-size="18" font-weight="600" fill="#3730a3">
        Iulius / Park
      </text>
    </g>
  </g>
</svg>
