<svg xmlns="http://www.w3.org/2000/svg" width="1600" height="900" viewBox="0 0 1600 900" role="img" aria-label="Teren intravilan &#238;n Some&#351;eni, Cluj-Napoca">
  <defs>
    <linearGradient id="bg" x1="0" x2="1" y1="1" y2="0">
      <stop offset="0" stop-color="#22c55e" stop-opacity="0.22"/>
      <stop offset="1" stop-color="#eab308" stop-opacity="0.12"/>
    </linearGradient>
    <filter id="shadow" x="-20%" y="-20%" width="140%" height="140%">
      <feDropShadow dx="0" dy="12" stdDeviation="18" flood-color="#0f172a" flood-opacity="0.18"/>
    </filter>
  </defs>

  <rect width="1600" height="900" fill="#f8fafc"/>
  <rect width="1600" height="900" fill="url(#bg)"/>

  <!-- grid -->
  <g opacity="0.10" stroke="#0f172a" stroke-width="2">
    <path d="M0 140h1600M0 260h1600M0 380h1600M0 500h1600M0 620h1600M0 740h1600"/>
    <path d="M140 0v900M300 0v900M460 0v900M620 0v900M780 0v900M940 0v900M1100 0v900M1260 0v900M1420 0v900"/>
  </g>

  <g filter="url(#shadow)">
    <rect x="170" y="160" width="1260" height="580" rx="36" fill="#ffffff" opacity="0.86"/>
  </g>

  <!-- plot outline -->
  <g transform="translate(320 270)" fill="none" stroke="#0f172a" stroke-width="12" stroke-linecap="round" stroke-linejoin="round" opacity="0.92">
    <path d="M60 360 110 40 420 120 360 440Z" fill="#22c55e" opacity="0.12"/>
    <path d="M60 360 110 40 420 120 360 440Z"/>
    <path d="M150 120 320 170" opacity="0.55"/>
    <path d="M120 220 300 270" opacity="0.55"/>
    <path d="M90 320 270 370" opacity="0.55"/>
    <path d="M150 420h240" opacity="0.6"/>
  </g>

  <!-- title -->
  <g transform="translate(820 315)" fill="#0f172a">
    <text x="0" y="0" font-family="ui-sans-serif, system-ui, -apple-system, Segoe UI, Roboto, Arial" font-size="42" font-weight="700">
      Teren intravilan &#8226; Some&#351;eni
    </text>
    <text x="0" y="52" font-family="ui-sans-serif, system-ui, -apple-system, Segoe UI, Roboto, Arial" font-size="24" opacity="0.72">
      620 m&#178; &#8226; utilit&#259;&#539;i la limit&#259; &#8226; potrivit cas&#259; / duplex
    </text>
    <g transform="translate(0 92)" opacity="0.75">
      <rect x="0" y="0" width="180" height="44" rx="22" fill="#22c55e" opacity="0.18"/>
      <text x="20" y="30" font-family="ui-sans-serif, system-ui, -apple-system, Segoe UI, Roboto, Arial" font-size="18" font-weight="600" fill="#065f46">
        Zon&#259; lini&#351;tit&#259;
      </text>
    </g>
  </g>
</svg>
